<svg id="Layer_1" data-name="Layer 1" xmlns="http://www.w3.org/2000/svg" xmlns:xlink="http://www.w3.org/1999/xlink" viewBox="0 0 512 512"><defs><style>.cls-1{fill:url(#linear-gradient);}.cls-2{fill:url(#linear-gradient-2);}</style><linearGradient id="linear-gradient" y1="256" x2="512" y2="256" gradientUnits="userSpaceOnUse"><stop offset="0.16" stop-color="#f96992"/><stop offset="1" stop-color="#f96992"/></linearGradient><linearGradient id="linear-gradient-2" x1="76.68" y1="210.88" x2="345.08" y2="210.88" xlink:href="#linear-gradient"/></defs><title>female-symbol-outline</title><path class="cls-1" d="M512,484.89l-50.36-50.36L512,384.17l-27.12-27.11-50.33,50.35-61.66-61.66a209.92,209.92,0,0,0,48.9-134.87C421.76,94.6,327.16,0,210.88,0S0,94.6,0,210.88,94.6,421.76,210.88,421.76a209.92,209.92,0,0,0,134.87-48.9l61.67,61.67-50.34,50.36L384.2,512l50.34-50.35L484.89,512Zm-473.66-274c0-95.14,77.4-172.54,172.54-172.54s172.54,77.4,172.54,172.54S306,383.42,210.88,383.42,38.34,306,38.34,210.88Z"/><path class="cls-2" d="M210.88,76.68c-74,0-134.2,60.2-134.2,134.2s60.2,134.2,134.2,134.2,134.2-60.2,134.2-134.2S284.88,76.68,210.88,76.68Zm0,230.05a95.85,95.85,0,1,1,95.85-95.85A96,96,0,0,1,210.88,306.74Z"/></svg>