<svg id="Layer_1" data-name="Layer 1" xmlns="http://www.w3.org/2000/svg" xmlns:xlink="http://www.w3.org/1999/xlink" viewBox="0 0 512 512"><defs><style>.cls-1{fill:url(#linear-gradient);}.cls-2{fill:url(#linear-gradient-2);}</style><linearGradient id="linear-gradient" y1="256" x2="512" y2="256" gradientUnits="userSpaceOnUse"><stop offset="0.16" stop-color="#f96992"/><stop offset="1" stop-color="#f96992"/></linearGradient><linearGradient id="linear-gradient-2" x1="166.4" y1="300.8" x2="435.2" y2="300.8" xlink:href="#linear-gradient"/></defs><title>male-symbol-outline</title><path class="cls-1" d="M300.8,89.6a210.24,210.24,0,0,0-135.08,49L65.55,38.4h56V0H0V121.6H38.4V65.55L138.57,165.72a210.24,210.24,0,0,0-49,135.08C89.6,417.26,184.34,512,300.8,512S512,417.26,512,300.8,417.26,89.6,300.8,89.6Zm0,384c-95.28,0-172.8-77.52-172.8-172.8S205.52,128,300.8,128s172.8,77.52,172.8,172.8S396.08,473.6,300.8,473.6Z"/><path class="cls-2" d="M300.8,166.4c-74.11,0-134.4,60.29-134.4,134.4s60.29,134.4,134.4,134.4,134.4-60.29,134.4-134.4S374.91,166.4,300.8,166.4Zm0,230.4a96,96,0,1,1,96-96A96.11,96.11,0,0,1,300.8,396.8Z"/></svg>